solid OpenSCAD_Model
  facet normal -1.000000 -0.000000 -0.000000
    outer loop
      vertex 0.000000 -9.000000 0.000000
      vertex 0.000000 -9.000000 3.500000
      vertex 0.000000 4.000000 0.000000
    endloop
  endfacet
  facet normal -1.000000 0.000000 -0.000000
    outer loop
      vertex 0.000000 24.000000 3.000000
      vertex 0.000000 -9.000000 3.500000
      vertex 0.000000 34.000000 3.500000
    endloop
  endfacet
  facet normal -1.000000 -0.000000 0.000000
    outer loop
      vertex 0.000000 24.000000 0.000000
      vertex 0.000000 34.000000 3.500000
      vertex 0.000000 34.000000 0.000000
    endloop
  endfacet
  facet normal -1.000000 -0.000000 -0.000000
    outer loop
      vertex 0.000000 4.000000 3.000000
      vertex 0.000000 -9.000000 3.500000
      vertex 0.000000 24.000000 3.000000
    endloop
  endfacet
  facet normal -1.000000 0.000000 0.000000
    outer loop
      vertex 0.000000 4.000000 0.000000
      vertex 0.000000 -9.000000 3.500000
      vertex 0.000000 4.000000 3.000000
    endloop
  endfacet
  facet normal -1.000000 -0.000000 0.000000
    outer loop
      vertex 0.000000 24.000000 3.000000
      vertex 0.000000 34.000000 3.500000
      vertex 0.000000 24.000000 0.000000
    endloop
  endfacet
  facet normal 0.000000 -1.000000 0.000000
    outer loop
      vertex 0.000000 -9.000000 3.500000
      vertex 0.000000 -9.000000 0.000000
      vertex 4.000000 -9.000000 0.000000
    endloop
  endfacet
  facet normal 0.000000 -1.000000 0.000000
    outer loop
      vertex 4.000000 -9.000000 3.500000
      vertex 0.000000 -9.000000 3.500000
      vertex 4.000000 -9.000000 0.000000
    endloop
  endfacet
  facet normal -0.000000 -0.000000 -1.000000
    outer loop
      vertex 0.000000 -9.000000 0.000000
      vertex 0.000000 4.000000 0.000000
      vertex 4.000000 -9.000000 0.000000
    endloop
  endfacet
  facet normal 0.000000 -0.000000 -1.000000
    outer loop
      vertex 4.000000 0.000000 0.000000
      vertex 0.000000 4.000000 0.000000
      vertex 30.000000 4.000000 0.000000
    endloop
  endfacet
  facet normal 0.000000 0.000000 -1.000000
    outer loop
      vertex 4.000000 -9.000000 0.000000
      vertex 0.000000 4.000000 0.000000
      vertex 4.000000 0.000000 0.000000
    endloop
  endfacet
  facet normal -0.000000 0.000000 -1.000000
    outer loop
      vertex 4.000000 0.000000 0.000000
      vertex 30.000000 4.000000 0.000000
      vertex 30.000000 0.000000 0.000000
    endloop
  endfacet
  facet normal 0.000000 1.000000 0.000000
    outer loop
      vertex 0.000000 4.000000 0.000000
      vertex 0.000000 4.000000 3.000000
      vertex 30.000000 4.000000 0.000000
    endloop
  endfacet
  facet normal 0.000000 1.000000 0.000000
    outer loop
      vertex 30.000000 4.000000 0.000000
      vertex 0.000000 4.000000 3.000000
      vertex 4.000000 4.000000 3.000000
    endloop
  endfacet
  facet normal 0.000000 1.000000 0.000000
    outer loop
      vertex 30.000000 4.000000 0.000000
      vertex 4.000000 4.000000 3.000000
      vertex 4.000000 4.000000 3.500000
    endloop
  endfacet
  facet normal 0.000000 1.000000 0.000000
    outer loop
      vertex 30.000000 4.000000 0.000000
      vertex 4.000000 4.000000 3.500000
      vertex 30.000000 4.000000 3.500000
    endloop
  endfacet
  facet normal -0.000000 -0.000000 -1.000000
    outer loop
      vertex 0.000000 4.000000 3.000000
      vertex 0.000000 24.000000 3.000000
      vertex 4.000000 4.000000 3.000000
    endloop
  endfacet
  facet normal 0.000000 0.000000 -1.000000
    outer loop
      vertex 4.000000 4.000000 3.000000
      vertex 0.000000 24.000000 3.000000
      vertex 4.000000 24.000000 3.000000
    endloop
  endfacet
  facet normal 0.000000 -1.000000 0.000000
    outer loop
      vertex 0.000000 24.000000 3.000000
      vertex 0.000000 24.000000 0.000000
      vertex 30.000000 24.000000 0.000000
    endloop
  endfacet
  facet normal 0.000000 -1.000000 0.000000
    outer loop
      vertex 4.000000 24.000000 3.000000
      vertex 0.000000 24.000000 3.000000
      vertex 30.000000 24.000000 0.000000
    endloop
  endfacet
  facet normal 0.000000 -1.000000 0.000000
    outer loop
      vertex 30.000000 24.000000 3.500000
      vertex 4.000000 24.000000 3.000000
      vertex 30.000000 24.000000 0.000000
    endloop
  endfacet
  facet normal 0.000000 -1.000000 0.000000
    outer loop
      vertex 4.000000 24.000000 3.500000
      vertex 4.000000 24.000000 3.000000
      vertex 30.000000 24.000000 3.500000
    endloop
  endfacet
  facet normal 0.000000 0.000000 -1.000000
    outer loop
      vertex 30.000000 28.000000 0.000000
      vertex 30.000000 24.000000 0.000000
      vertex 4.000000 28.000000 0.000000
    endloop
  endfacet
  facet normal 0.000000 -0.000000 -1.000000
    outer loop
      vertex 0.000000 24.000000 0.000000
      vertex 0.000000 34.000000 0.000000
      vertex 4.000000 28.000000 0.000000
    endloop
  endfacet
  facet normal -0.000000 0.000000 -1.000000
    outer loop
      vertex 0.000000 24.000000 0.000000
      vertex 4.000000 28.000000 0.000000
      vertex 30.000000 24.000000 0.000000
    endloop
  endfacet
  facet normal 0.000000 0.000000 -1.000000
    outer loop
      vertex 4.000000 28.000000 0.000000
      vertex 0.000000 34.000000 0.000000
      vertex 4.000000 34.000000 0.000000
    endloop
  endfacet
  facet normal 0.000000 1.000000 0.000000
    outer loop
      vertex 0.000000 34.000000 0.000000
      vertex 0.000000 34.000000 3.500000
      vertex 4.000000 34.000000 0.000000
    endloop
  endfacet
  facet normal 0.000000 1.000000 0.000000
    outer loop
      vertex 4.000000 34.000000 0.000000
      vertex 0.000000 34.000000 3.500000
      vertex 4.000000 34.000000 3.500000
    endloop
  endfacet
  facet normal 0.000000 -0.000000 1.000000
    outer loop
      vertex 0.000000 34.000000 3.500000
      vertex 0.000000 -9.000000 3.500000
      vertex 4.000000 -9.000000 3.500000
    endloop
  endfacet
  facet normal -0.000000 0.000000 1.000000
    outer loop
      vertex 4.000000 4.000000 3.500000
      vertex 0.000000 34.000000 3.500000
      vertex 4.000000 0.000000 3.500000
    endloop
  endfacet
  facet normal -0.000000 0.000000 1.000000
    outer loop
      vertex 4.000000 0.000000 3.500000
      vertex 0.000000 34.000000 3.500000
      vertex 4.000000 -9.000000 3.500000
    endloop
  endfacet
  facet normal -0.000000 0.000000 1.000000
    outer loop
      vertex 30.000000 0.000000 3.500000
      vertex 4.000000 4.000000 3.500000
      vertex 4.000000 0.000000 3.500000
    endloop
  endfacet
  facet normal -0.000000 0.000000 1.000000
    outer loop
      vertex 4.000000 24.000000 3.500000
      vertex 0.000000 34.000000 3.500000
      vertex 4.000000 4.000000 3.500000
    endloop
  endfacet
  facet normal -0.000000 0.000000 1.000000
    outer loop
      vertex 4.000000 28.000000 3.500000
      vertex 0.000000 34.000000 3.500000
      vertex 4.000000 24.000000 3.500000
    endloop
  endfacet
  facet normal 0.000000 0.000000 1.000000
    outer loop
      vertex 4.000000 28.000000 3.500000
      vertex 4.000000 34.000000 3.500000
      vertex 0.000000 34.000000 3.500000
    endloop
  endfacet
  facet normal 0.000000 0.000000 1.000000
    outer loop
      vertex 4.000000 24.000000 3.500000
      vertex 30.000000 24.000000 3.500000
      vertex 4.000000 28.000000 3.500000
    endloop
  endfacet
  facet normal 0.000000 0.000000 1.000000
    outer loop
      vertex 30.000000 28.000000 3.500000
      vertex 4.000000 28.000000 3.500000
      vertex 30.000000 24.000000 3.500000
    endloop
  endfacet
  facet normal 0.000000 0.000000 1.000000
    outer loop
      vertex 30.000000 4.000000 3.500000
      vertex 4.000000 4.000000 3.500000
      vertex 30.000000 0.000000 3.500000
    endloop
  endfacet
  facet normal 1.000000 0.000000 -0.000000
    outer loop
      vertex 4.000000 -9.000000 3.500000
      vertex 4.000000 -9.000000 0.000000
      vertex 4.000000 0.000000 0.000000
    endloop
  endfacet
  facet normal 1.000000 0.000000 0.000000
    outer loop
      vertex 4.000000 0.000000 3.500000
      vertex 4.000000 -9.000000 3.500000
      vertex 4.000000 0.000000 0.000000
    endloop
  endfacet
  facet normal 0.000000 -1.000000 0.000000
    outer loop
      vertex 4.000000 0.000000 3.500000
      vertex 4.000000 0.000000 0.000000
      vertex 30.000000 0.000000 0.000000
    endloop
  endfacet
  facet normal 0.000000 -1.000000 0.000000
    outer loop
      vertex 30.000000 0.000000 3.500000
      vertex 4.000000 0.000000 3.500000
      vertex 30.000000 0.000000 0.000000
    endloop
  endfacet
  facet normal 1.000000 0.000000 -0.000000
    outer loop
      vertex 30.000000 0.000000 3.500000
      vertex 30.000000 0.000000 0.000000
      vertex 30.000000 4.000000 0.000000
    endloop
  endfacet
  facet normal 1.000000 0.000000 0.000000
    outer loop
      vertex 30.000000 4.000000 3.500000
      vertex 30.000000 0.000000 3.500000
      vertex 30.000000 4.000000 0.000000
    endloop
  endfacet
  facet normal 1.000000 0.000000 -0.000000
    outer loop
      vertex 4.000000 4.000000 3.500000
      vertex 4.000000 4.000000 3.000000
      vertex 4.000000 24.000000 3.000000
    endloop
  endfacet
  facet normal 1.000000 0.000000 0.000000
    outer loop
      vertex 4.000000 24.000000 3.500000
      vertex 4.000000 4.000000 3.500000
      vertex 4.000000 24.000000 3.000000
    endloop
  endfacet
  facet normal 1.000000 0.000000 -0.000000
    outer loop
      vertex 30.000000 24.000000 3.500000
      vertex 30.000000 24.000000 0.000000
      vertex 30.000000 28.000000 0.000000
    endloop
  endfacet
  facet normal 1.000000 0.000000 0.000000
    outer loop
      vertex 30.000000 28.000000 3.500000
      vertex 30.000000 24.000000 3.500000
      vertex 30.000000 28.000000 0.000000
    endloop
  endfacet
  facet normal 0.000000 1.000000 0.000000
    outer loop
      vertex 4.000000 28.000000 0.000000
      vertex 4.000000 28.000000 3.500000
      vertex 30.000000 28.000000 0.000000
    endloop
  endfacet
  facet normal 0.000000 1.000000 0.000000
    outer loop
      vertex 30.000000 28.000000 0.000000
      vertex 4.000000 28.000000 3.500000
      vertex 30.000000 28.000000 3.500000
    endloop
  endfacet
  facet normal 1.000000 0.000000 -0.000000
    outer loop
      vertex 4.000000 28.000000 3.500000
      vertex 4.000000 28.000000 0.000000
      vertex 4.000000 34.000000 0.000000
    endloop
  endfacet
  facet normal 1.000000 0.000000 0.000000
    outer loop
      vertex 4.000000 34.000000 3.500000
      vertex 4.000000 28.000000 3.500000
      vertex 4.000000 34.000000 0.000000
    endloop
  endfacet
endsolid OpenSCAD_Model
